<svg width="1264" height="272" viewBox="0 0 1264 272" fill="none" xmlns="http://www.w3.org/2000/svg">
<path d="M1222.7 247.576C1222.7 240.38 1224.73 235.375 1228.8 232.559C1232.87 229.587 1237.79 228.102 1243.58 228.102C1249.06 228.102 1253.83 229.587 1257.89 232.559C1261.96 235.375 1263.99 240.38 1263.99 247.576C1263.99 254.458 1261.96 259.464 1257.89 262.592C1253.83 265.564 1249.06 267.05 1243.58 267.05C1237.79 267.05 1232.87 265.564 1228.8 262.592C1224.73 259.464 1222.7 254.458 1222.7 247.576Z" fill="#F8F8F8"/>
<path d="M1203.62 217.543C1203.62 227.398 1201.43 236.001 1197.05 243.353C1192.67 250.704 1186.03 256.414 1177.11 260.481C1168.35 264.391 1157.25 266.346 1143.79 266.346C1137.54 266.346 1131.75 265.955 1126.43 265.173C1121.11 264.391 1116.11 263.296 1111.41 261.888C1106.72 260.324 1102.03 258.447 1097.34 256.257V223.174C1105.31 226.616 1113.45 229.822 1121.74 232.794C1130.18 235.61 1138.16 237.017 1145.67 237.017C1150.52 237.017 1154.43 236.235 1157.4 234.671C1160.37 233.107 1162.56 230.995 1163.97 228.336C1165.38 225.677 1166.08 222.627 1166.08 219.186C1166.08 214.962 1164.91 211.365 1162.56 208.393C1160.37 205.421 1157.09 202.683 1152.71 200.18C1148.33 197.521 1142.93 194.862 1136.52 192.203C1131.83 190.17 1127.21 187.823 1122.68 185.164C1118.14 182.505 1114.07 179.298 1110.48 175.544C1106.88 171.634 1103.98 166.941 1101.79 161.466C1099.76 155.992 1098.74 149.422 1098.74 141.757C1098.74 131.747 1101.09 123.222 1105.78 116.183C1110.48 108.987 1117.05 103.513 1125.49 99.7586C1133.94 96.0045 1143.79 94.1274 1155.06 94.1274C1164.28 94.1274 1172.81 95.1442 1180.63 97.1776C1188.61 99.2111 1196.19 102.105 1203.39 105.859L1191.42 133.545C1184.54 130.417 1177.97 127.992 1171.71 126.272C1165.61 124.551 1159.67 123.691 1153.88 123.691C1149.97 123.691 1146.69 124.395 1144.03 125.803C1141.37 127.21 1139.34 129.166 1137.93 131.668C1136.68 134.171 1136.05 137.143 1136.05 140.584C1136.05 144.495 1137.07 147.858 1139.1 150.673C1141.29 153.333 1144.65 155.992 1149.19 158.651C1153.73 161.154 1159.51 164.204 1166.55 167.801C1174.37 171.712 1181.02 175.857 1186.5 180.237C1192.13 184.46 1196.35 189.544 1199.17 195.488C1202.14 201.432 1203.62 208.784 1203.62 217.543Z" fill="#F8F8F8"/>
<path d="M1068.85 264H1019.82L956.701 137.299H955.762C955.919 141.21 956.075 145.199 956.232 149.266C956.388 153.176 956.545 157.165 956.701 161.232C957.014 165.142 957.248 169.131 957.405 173.198C957.561 177.108 957.718 181.097 957.874 185.164V264H924.087V96.4738H972.89L1035.77 222.001H1036.48C1036.48 218.091 1036.4 214.258 1036.24 210.504C1036.08 206.594 1035.85 202.761 1035.54 199.007C1035.38 195.097 1035.22 191.265 1035.07 187.51C1034.91 183.6 1034.83 179.689 1034.83 175.779V96.4738H1068.85V264Z" fill="#F8F8F8"/>
<path d="M864.482 264L854.862 224.113H800.662L790.808 264H749.513L803.009 95.7698H851.812L905.542 264H864.482ZM835.622 155.366C834.684 152.081 833.745 148.64 832.807 145.042C831.868 141.445 830.93 137.691 829.991 133.78C829.209 129.869 828.427 125.881 827.645 121.814C827.019 125.881 826.237 129.948 825.299 134.015C824.36 137.925 823.421 141.679 822.483 145.277C821.701 148.875 820.841 152.238 819.902 155.366L809.109 194.315H846.65L835.622 155.366Z" fill="#F8F8F8"/>
<path d="M624.592 264L589.632 132.607H588.694C588.85 135.735 589.085 140.428 589.398 146.685C589.711 152.942 590.023 159.668 590.336 166.863C590.649 173.902 590.805 180.315 590.805 186.103V264H557.019V96.4738H608.168L643.128 224.582H643.832L679.73 96.4738H730.88V264H695.685V184.695C695.685 179.377 695.764 173.276 695.92 166.394C696.076 159.511 696.311 153.02 696.624 146.919C696.937 140.663 697.171 135.97 697.328 132.842H696.389L660.256 264H624.592Z" fill="#F8F8F8"/>
<path d="M365.76 169.913H430.753V256.726C422.619 259.698 413.703 262.045 404.005 263.765C394.307 265.486 383.748 266.346 372.329 266.346C357 266.346 343.705 263.061 332.442 256.492C321.336 249.922 312.733 240.224 306.633 227.398C300.689 214.571 297.717 198.773 297.717 180.002C297.717 162.483 300.845 147.31 307.102 134.484C313.515 121.657 322.822 111.725 335.023 104.686C347.38 97.6469 362.475 94.1274 380.307 94.1274C389.379 94.1274 398.139 95.066 406.586 96.943C415.032 98.8201 422.54 101.323 429.11 104.451L416.909 132.841C411.591 130.182 405.882 127.992 399.781 126.272C393.681 124.551 387.189 123.691 380.307 123.691C370.765 123.691 362.71 126.037 356.14 130.73C349.727 135.422 344.878 142.07 341.593 150.673C338.464 159.12 336.9 169.131 336.9 180.706C336.9 191.656 338.308 201.354 341.124 209.8C343.939 218.247 348.163 224.895 353.794 229.744C359.425 234.437 366.542 236.783 375.145 236.783C377.648 236.783 380.072 236.705 382.419 236.548C384.765 236.235 386.955 235.923 388.988 235.61C391.178 235.14 393.055 234.749 394.619 234.437V199.477H365.76V169.913Z" fill="#F8F8F8"/>
<path d="M273.906 264H181.93V96.4738H273.906V125.568H219.941V162.405H270.152V191.499H219.941V234.671H273.906V264Z" fill="#F8F8F8"/>
<path d="M144.767 264H95.7293L32.6137 137.299H31.6751C31.8316 141.21 31.988 145.199 32.1444 149.266C32.3008 153.176 32.4572 157.165 32.6137 161.232C32.9265 165.142 33.1611 169.131 33.3176 173.198C33.474 177.108 33.6304 181.097 33.7868 185.164V264H0V96.4738H48.8032L111.684 222.001H112.388C112.388 218.091 112.31 214.258 112.153 210.504C111.997 206.594 111.762 202.761 111.45 199.007C111.293 195.097 111.137 191.265 110.98 187.51C110.824 183.6 110.746 179.689 110.746 175.779V96.4738H144.767V264Z" fill="#F8F8F8"/>
<path d="M548.278 0L579.467 31.1884L519.867 90.7878L519.877 90.7971L510.736 99.9378V271.048H466.629V99.9442L457.482 90.7969L457.491 90.7878L398.01 31.3069L429.198 0.118537L488.679 59.5994L548.278 0Z" fill="#F8F8F8"/>
<path d="M0.464844 31H361.465V64H0.464844V31Z" fill="#F8F8F8"/>
<path d="M640.784 64H630.416V26.368H619.344V18.304H651.856V26.368H640.784V64Z" fill="#F8F8F8"/>
<path d="M676.099 64H655.172V58.496L660.484 55.936V26.368L655.172 23.808V18.304H676.099V23.808L670.852 26.368V55.936L676.099 58.496V64Z" fill="#F8F8F8"/>
<path d="M718.703 64H706.99L697.135 44.736L693.487 47.68V64H683.119V18.304H693.487V39.232C694.041 38.336 694.617 37.44 695.214 36.544C695.854 35.648 696.473 34.752 697.07 33.856L707.375 18.304H718.766L704.558 38.528L718.703 64Z" fill="#F8F8F8"/>
<path d="M738.08 37.12L746.271 18.304H757.407L743.2 46.208V64H732.896V46.528L718.688 18.304H729.951L738.08 37.12Z" fill="#F8F8F8"/>
<path d="M798.206 47.872C798.206 51.0293 797.523 53.888 796.157 56.448C794.835 58.9653 792.829 60.9707 790.141 62.464C787.453 63.9147 784.083 64.64 780.029 64.64C774.227 64.64 769.79 63.104 766.718 60.032C763.688 56.9173 762.174 52.8213 762.174 47.744V18.304H772.542V46.272C772.542 50.0267 773.181 52.672 774.461 54.208C775.784 55.744 777.704 56.512 780.221 56.512C782.013 56.512 783.464 56.1493 784.573 55.424C785.683 54.6987 786.493 53.568 787.005 52.032C787.56 50.496 787.838 48.5547 787.838 46.208V18.304H798.206V47.872Z" fill="#F8F8F8"/>
<path d="M843.706 47.872C843.706 51.0293 843.023 53.888 841.657 56.448C840.335 58.9653 838.329 60.9707 835.641 62.464C832.953 63.9147 829.583 64.64 825.529 64.64C819.727 64.64 815.29 63.104 812.218 60.032C809.188 56.9173 807.674 52.8213 807.674 47.744V18.304H818.042V46.272C818.042 50.0267 818.681 52.672 819.961 54.208C821.284 55.744 823.204 56.512 825.721 56.512C827.513 56.512 828.964 56.1493 830.073 55.424C831.183 54.6987 831.993 53.568 832.505 52.032C833.06 50.496 833.338 48.5547 833.338 46.208V18.304H843.706V47.872Z" fill="#F8F8F8"/>
<path d="M889.526 64H879.094V44.288H863.862V64H853.494V18.304H863.862V36.224H879.094V18.304H889.526V64Z" fill="#F8F8F8"/>
<path d="M925.922 64L923.299 53.12H908.515L905.826 64H894.562L909.154 18.112H922.466L937.122 64H925.922ZM918.05 34.368C917.794 33.472 917.538 32.5333 917.282 31.552C917.026 30.5707 916.771 29.5467 916.515 28.48C916.301 27.4133 916.088 26.3253 915.875 25.216C915.704 26.3253 915.49 27.4347 915.234 28.544C914.978 29.6107 914.722 30.6347 914.466 31.616C914.253 32.5973 914.019 33.5147 913.763 34.368L910.818 44.992H921.058L918.05 34.368Z" fill="#F8F8F8"/>
<path d="M977.765 64H966.053L956.197 44.736L952.549 47.68V64H942.181V18.304H952.549V39.232C953.104 38.336 953.68 37.44 954.277 36.544C954.917 35.648 955.536 34.752 956.133 33.856L966.437 18.304H977.829L963.621 38.528L977.765 64Z" fill="#F8F8F8"/>
<path d="M1009.11 64L1006.49 53.12H991.702L989.014 64H977.75L992.342 18.112H1005.65L1020.31 64H1009.11ZM1001.24 34.368C1000.98 33.472 1000.73 32.5333 1000.47 31.552C1000.21 30.5707 999.958 29.5467 999.702 28.48C999.489 27.4133 999.275 26.3253 999.062 25.216C998.891 26.3253 998.678 27.4347 998.422 28.544C998.166 29.6107 997.91 30.6347 997.654 31.616C997.441 32.5973 997.206 33.5147 996.95 34.368L994.006 44.992H1004.25L1001.24 34.368Z" fill="#F8F8F8"/>
<path d="M1043.22 64H1022.3V58.496L1027.61 55.936V26.368L1022.3 23.808V18.304H1043.22V23.808L1037.98 26.368V55.936L1043.22 58.496V64Z" fill="#F8F8F8"/>
<path d="M1062.66 17.728C1065.3 17.728 1067.67 18.1333 1069.76 18.944C1071.9 19.7547 1073.58 20.9707 1074.82 22.592C1076.06 24.2133 1076.68 26.2613 1076.68 28.736C1076.68 30.5707 1076.33 32.192 1075.65 33.6C1075.01 34.9653 1074.12 36.16 1072.96 37.184C1071.85 38.208 1070.57 39.104 1069.12 39.872C1070.57 40.7253 1071.96 41.728 1073.28 42.88C1074.65 43.9893 1075.76 45.312 1076.61 46.848C1077.51 48.3413 1077.96 50.112 1077.96 52.16C1077.96 54.6773 1077.36 56.8747 1076.16 58.752C1074.97 60.6293 1073.22 62.08 1070.92 63.104C1068.65 64.128 1065.88 64.64 1062.6 64.64C1059.18 64.64 1056.32 64.1493 1054.02 63.168C1051.76 62.1867 1050.05 60.7787 1048.9 58.944C1047.79 57.1093 1047.24 54.9333 1047.24 52.416C1047.24 50.3253 1047.58 48.512 1048.26 46.976C1048.98 45.44 1049.97 44.1173 1051.2 43.008C1052.44 41.856 1053.81 40.896 1055.3 40.128C1054.06 39.2747 1052.91 38.3147 1051.84 37.248C1050.82 36.1387 1050.01 34.9013 1049.41 33.536C1048.81 32.128 1048.52 30.5067 1048.52 28.672C1048.52 26.24 1049.13 24.2133 1050.37 22.592C1051.65 20.9707 1053.36 19.7547 1055.49 18.944C1057.67 18.1333 1060.06 17.728 1062.66 17.728ZM1056.77 51.84C1056.77 53.504 1057.26 54.8693 1058.24 55.936C1059.22 57.0027 1060.63 57.536 1062.47 57.536C1063.83 57.536 1064.94 57.3013 1065.8 56.832C1066.69 56.3627 1067.35 55.7013 1067.78 54.848C1068.21 53.9947 1068.42 53.0133 1068.42 51.904C1068.42 50.752 1068.14 49.728 1067.59 48.832C1067.03 47.936 1066.35 47.1467 1065.54 46.464C1064.73 45.7387 1063.92 45.12 1063.11 44.608L1062.34 44.096C1061.27 44.6933 1060.31 45.376 1059.46 46.144C1058.65 46.912 1057.99 47.7653 1057.48 48.704C1057.01 49.6 1056.77 50.6453 1056.77 51.84ZM1062.6 24.768C1061.4 24.768 1060.38 25.1733 1059.52 25.984C1058.67 26.7947 1058.24 27.9467 1058.24 29.44C1058.24 30.464 1058.44 31.3813 1058.82 32.192C1059.25 32.96 1059.78 33.6427 1060.42 34.24C1061.1 34.7947 1061.83 35.328 1062.6 35.84C1063.32 35.3707 1064 34.8587 1064.64 34.304C1065.33 33.7493 1065.88 33.088 1066.31 32.32C1066.73 31.5093 1066.95 30.5493 1066.95 29.44C1066.95 27.9467 1066.52 26.7947 1065.67 25.984C1064.86 25.1733 1063.83 24.768 1062.6 24.768Z" fill="#F8F8F8"/>
<path d="M1098.82 34.816C1101.33 34.816 1103.57 35.3493 1105.54 36.416C1107.54 37.4827 1109.12 39.04 1110.27 41.088C1111.47 43.136 1112.06 45.6747 1112.06 48.704C1112.06 51.9893 1111.42 54.8267 1110.14 57.216C1108.86 59.6053 1106.94 61.44 1104.38 62.72C1101.82 64 1098.62 64.64 1094.78 64.64C1092.44 64.64 1090.24 64.4267 1088.19 64C1086.19 63.5733 1084.42 62.9547 1082.88 62.144V53.824C1084.37 54.6347 1086.17 55.3387 1088.26 55.936C1090.39 56.4907 1092.35 56.768 1094.14 56.768C1095.77 56.768 1097.13 56.512 1098.24 56C1099.35 55.488 1100.18 54.6987 1100.74 53.632C1101.33 52.5653 1101.63 51.2 1101.63 49.536C1101.63 47.2747 1100.99 45.568 1099.71 44.416C1098.43 43.2213 1096.47 42.624 1093.82 42.624C1092.71 42.624 1091.61 42.752 1090.5 43.008C1089.39 43.2213 1088.43 43.4347 1087.62 43.648L1083.65 41.6L1085.31 18.304H1109.18V26.496H1094.21L1093.5 35.456C1094.19 35.328 1094.87 35.2 1095.55 35.072C1096.28 34.9013 1097.37 34.816 1098.82 34.816Z" fill="#F8F8F8"/>
<path d="M1141.05 64H1130.62V37.568C1130.62 36.8427 1130.62 35.9467 1130.62 34.88C1130.66 33.8133 1130.68 32.704 1130.68 31.552C1130.73 30.4 1130.77 29.376 1130.81 28.48C1130.47 28.736 1130.02 29.2053 1129.47 29.888C1128.96 30.5707 1128.42 31.1467 1127.87 31.616L1123.07 35.84L1117.82 30.016L1132.09 18.304H1141.05V64Z" fill="#F8F8F8"/>
</svg>
