<svg width="266" height="57" viewBox="0 0 266 57" fill="none" xmlns="http://www.w3.org/2000/svg">
<path d="M257.133 52.064C257.133 50.5508 257.561 49.4982 258.416 48.9061C259.271 48.2811 260.307 47.9686 261.525 47.9686C262.676 47.9686 263.679 48.2811 264.535 48.9061C265.39 49.4982 265.817 50.5508 265.817 52.064C265.817 53.5114 265.39 54.5641 264.535 55.222C263.679 55.847 262.676 56.1595 261.525 56.1595C260.307 56.1595 259.271 55.847 258.416 55.222C257.561 54.5641 257.133 53.5114 257.133 52.064Z" fill="#111111"/>
<path d="M253.122 45.7482C253.122 47.8206 252.661 49.6297 251.74 51.1758C250.819 52.7218 249.421 53.9225 247.546 54.7777C245.704 55.6001 243.368 56.0113 240.539 56.0113C239.224 56.0113 238.006 55.929 236.888 55.7646C235.77 55.6001 234.717 55.3698 233.73 55.0738C232.743 54.7448 231.756 54.3501 230.77 53.8896V46.9324C232.447 47.6561 234.158 48.3304 235.901 48.9554C237.677 49.5475 239.355 49.8436 240.934 49.8436C241.954 49.8436 242.776 49.6791 243.401 49.3501C244.026 49.0212 244.487 48.5771 244.783 48.0179C245.079 47.4587 245.227 46.8173 245.227 46.0936C245.227 45.2054 244.98 44.4489 244.487 43.8239C244.026 43.1989 243.335 42.6232 242.414 42.0969C241.493 41.5377 240.358 40.9785 239.01 40.4193C238.023 39.9917 237.052 39.4983 236.099 38.9391C235.145 38.3799 234.289 37.7055 233.533 36.9161C232.776 36.0937 232.168 35.1069 231.707 33.9556C231.279 32.8043 231.066 31.4227 231.066 29.8109C231.066 27.7056 231.559 25.9129 232.546 24.4326C233.533 22.9195 234.914 21.7682 236.691 20.9787C238.467 20.1893 240.539 19.7945 242.908 19.7945C244.849 19.7945 246.641 20.0083 248.286 20.436C249.964 20.8636 251.559 21.4721 253.072 22.2616L250.556 28.0839C249.109 27.426 247.727 26.9162 246.411 26.5543C245.128 26.1925 243.878 26.0116 242.661 26.0116C241.839 26.0116 241.148 26.1596 240.589 26.4556C240.029 26.7517 239.602 27.1629 239.306 27.6892C239.043 28.2155 238.911 28.8405 238.911 29.5642C238.911 30.3865 239.125 31.0938 239.553 31.6859C240.013 32.2451 240.72 32.8043 241.674 33.3635C242.628 33.8898 243.845 34.5312 245.326 35.2878C246.97 36.1101 248.368 36.9818 249.52 37.9029C250.704 38.791 251.592 39.8601 252.184 41.1101C252.809 42.3601 253.122 43.9061 253.122 45.7482Z" fill="#111111"/>
<path d="M224.78 55.5179H214.467L201.194 28.8734H200.997C201.029 29.6958 201.062 30.5346 201.095 31.3898C201.128 32.2122 201.161 33.051 201.194 33.9062C201.26 34.7286 201.309 35.5674 201.342 36.4227C201.375 37.245 201.408 38.0838 201.441 38.9391V55.5179H194.335V20.288H204.599L217.822 46.6857H217.97C217.97 45.8634 217.954 45.0574 217.921 44.268C217.888 43.4456 217.839 42.6397 217.773 41.8502C217.74 41.0279 217.707 40.222 217.674 39.4325C217.641 38.6101 217.625 37.7878 217.625 36.9654V20.288H224.78V55.5179Z" fill="#111111"/>
<path d="M181.8 55.5178L179.777 47.1298H168.379L166.307 55.5178H157.622L168.872 20.1399H179.136L190.435 55.5178H181.8ZM175.731 32.6727C175.534 31.9819 175.336 31.2582 175.139 30.5016C174.942 29.7451 174.744 28.9556 174.547 28.1332C174.382 27.3109 174.218 26.4721 174.053 25.6168C173.922 26.4721 173.757 27.3273 173.56 28.1826C173.363 29.0049 173.165 29.7944 172.968 30.551C172.803 31.3076 172.622 32.0148 172.425 32.6727L170.155 40.8634H178.05L175.731 32.6727Z" fill="#111111"/>
<path d="M131.352 55.5179L124 27.8866H123.802C123.835 28.5445 123.884 29.5313 123.95 30.8471C124.016 32.1628 124.082 33.5773 124.148 35.0904C124.213 36.5707 124.246 37.9194 124.246 39.1365V55.5179H117.141V20.288H127.898L135.25 47.2285H135.398L142.947 20.288H153.704V55.5179H146.302V38.8404C146.302 37.722 146.319 36.4391 146.352 34.9918C146.385 33.5444 146.434 32.1793 146.5 30.8964C146.566 29.5806 146.615 28.5938 146.648 27.9359H146.45L138.852 55.5179H131.352Z" fill="#111111"/>
<path d="M76.9191 35.7319H90.587V53.9883C88.8764 54.6133 87.0014 55.1067 84.9619 55.4685C82.9224 55.8303 80.702 56.0113 78.3007 56.0113C75.0769 56.0113 72.2808 55.3205 69.9124 53.9389C67.5768 52.5574 65.7676 50.5179 64.4847 47.8206C63.2347 45.1232 62.6097 41.8009 62.6097 37.8535C62.6097 34.1694 63.2676 30.9786 64.5834 28.2813C65.9321 25.5839 67.8893 23.4951 70.4552 22.0149C73.0539 20.5346 76.2283 19.7945 79.9783 19.7945C81.8862 19.7945 83.7283 19.9919 85.5047 20.3866C87.281 20.7814 88.86 21.3077 90.2416 21.9656L87.6758 27.9359C86.5573 27.3767 85.3567 26.9162 84.0738 26.5543C82.7908 26.1925 81.4257 26.0116 79.9783 26.0116C77.9717 26.0116 76.2776 26.505 74.896 27.4918C73.5473 28.4786 72.5276 29.8767 71.8368 31.6859C71.1789 33.4622 70.8499 35.5674 70.8499 38.0016C70.8499 40.3042 71.146 42.3436 71.7381 44.1199C72.3302 45.8962 73.2183 47.2942 74.4026 48.314C75.5868 49.3008 77.0835 49.7942 78.8928 49.7942C79.4191 49.7942 79.929 49.7778 80.4224 49.7449C80.9158 49.6791 81.3764 49.6133 81.804 49.5475C82.2645 49.4488 82.6593 49.3666 82.9882 49.3008V41.9489H76.9191V35.7319Z" fill="#111111"/>
<path d="M57.6023 55.5179H38.26V20.288H57.6023V26.4063H46.2535V34.153H56.8128V40.2713H46.2535V49.3502H57.6023V55.5179Z" fill="#111111"/>
<path d="M30.4445 55.5179H20.1318L6.85864 28.8734H6.66127C6.69417 29.6958 6.72706 30.5346 6.75996 31.3898C6.79285 32.2122 6.82575 33.051 6.85864 33.9062C6.92443 34.7286 6.97377 35.5674 7.00667 36.4227C7.03957 37.245 7.07246 38.0838 7.10535 38.9391V55.5179H0V20.288H10.2633L23.4871 46.6857H23.6352C23.6352 45.8634 23.6187 45.0574 23.5858 44.268C23.5529 43.4456 23.5036 42.6397 23.4378 41.8502C23.4049 41.0279 23.372 40.222 23.3391 39.4325C23.3062 38.6101 23.2898 37.7878 23.2898 36.9654V20.288H30.4445V55.5179Z" fill="#111111"/>
<path d="M115.303 0L121.862 6.55876L109.328 19.0921L109.33 19.0942L107.408 21.0165V57H98.1321V21.0179L96.2083 19.0941L96.2103 19.0921L83.7016 6.58369L90.2605 0.0249326L102.769 12.5334L115.303 0Z" fill="#111111"/>
<path d="M0.0978846 6.51913H76.0161V13.459H0.0978846V6.51913Z" fill="#111111"/>
<path d="M134.757 13.6251H132.576V5.71108H130.248V4.01522H137.085V5.71108H134.757V13.6251Z" fill="#111111"/>
<path d="M142.183 13.6251H137.782V12.4676L138.899 11.9292V5.71108L137.782 5.17271V4.01522H142.183V5.17271L141.08 5.71108V11.9292L142.183 12.4676V13.6251Z" fill="#111111"/>
<path d="M151.143 13.6251H148.68L146.607 9.57386L145.84 10.193V13.6251H143.66V4.01522H145.84V8.41637C145.957 8.22794 146.078 8.03951 146.203 7.85109C146.338 7.66266 146.468 7.47423 146.594 7.2858L148.761 4.01522H151.156L148.168 8.26832L151.143 13.6251Z" fill="#111111"/>
<path d="M155.218 7.97222L156.941 4.01522H159.282L156.295 9.88342V13.6251H154.128V9.95072L151.14 4.01522H153.508L155.218 7.97222Z" fill="#111111"/>
<path d="M167.862 10.2334C167.862 10.8973 167.719 11.4985 167.432 12.0369C167.153 12.5663 166.732 12.988 166.166 13.3021C165.601 13.6071 164.892 13.7597 164.04 13.7597C162.82 13.7597 161.886 13.4366 161.24 12.7906C160.603 12.1356 160.285 11.2742 160.285 10.2064V4.01522H162.465V9.89688C162.465 10.6865 162.6 11.2428 162.869 11.5658C163.147 11.8888 163.551 12.0504 164.08 12.0504C164.457 12.0504 164.762 11.9741 164.995 11.8215C165.229 11.669 165.399 11.4312 165.507 11.1082C165.624 10.7852 165.682 10.3769 165.682 9.88342V4.01522H167.862V10.2334Z" fill="#111111"/>
<path d="M177.431 10.2334C177.431 10.8973 177.287 11.4985 177 12.0369C176.722 12.5663 176.3 12.988 175.735 13.3021C175.17 13.6071 174.461 13.7597 173.609 13.7597C172.388 13.7597 171.455 13.4366 170.809 12.7906C170.172 12.1356 169.853 11.2742 169.853 10.2064V4.01522H172.034V9.89688C172.034 10.6865 172.168 11.2428 172.438 11.5658C172.716 11.8888 173.12 12.0504 173.649 12.0504C174.026 12.0504 174.331 11.9741 174.564 11.8215C174.797 11.669 174.968 11.4312 175.076 11.1082C175.192 10.7852 175.251 10.3769 175.251 9.88342V4.01522H177.431V10.2334Z" fill="#111111"/>
<path d="M187.067 13.6251H184.873V9.47965H181.67V13.6251H179.489V4.01522H181.67V7.78379H184.873V4.01522H187.067V13.6251Z" fill="#111111"/>
<path d="M194.721 13.6251L194.169 11.337H191.06L190.495 13.6251H188.126L191.195 3.97484H193.994L197.077 13.6251H194.721ZM193.066 7.39347C193.012 7.20504 192.958 7.00764 192.904 6.80127C192.85 6.59489 192.796 6.37955 192.743 6.15523C192.698 5.93091 192.653 5.7021 192.608 5.46881C192.572 5.7021 192.527 5.93539 192.473 6.16869C192.42 6.39301 192.366 6.60835 192.312 6.81473C192.267 7.0211 192.218 7.21402 192.164 7.39347L191.545 9.6277H193.698L193.066 7.39347Z" fill="#111111"/>
<path d="M205.624 13.6251H203.161L201.088 9.57386L200.321 10.193V13.6251H198.14V4.01522H200.321V8.41637C200.437 8.22794 200.558 8.03951 200.684 7.85109C200.819 7.66266 200.949 7.47423 201.074 7.2858L203.241 4.01522H205.637L202.649 8.26832L205.624 13.6251Z" fill="#111111"/>
<path d="M212.215 13.6251L211.664 11.337H208.555L207.989 13.6251H205.62L208.689 3.97484H211.489L214.571 13.6251H212.215ZM210.56 7.39347C210.506 7.20504 210.452 7.00764 210.398 6.80127C210.345 6.59489 210.291 6.37955 210.237 6.15523C210.192 5.93091 210.147 5.7021 210.102 5.46881C210.066 5.7021 210.022 5.93539 209.968 6.16869C209.914 6.39301 209.86 6.60835 209.806 6.81473C209.761 7.0211 209.712 7.21402 209.658 7.39347L209.039 9.6277H211.193L210.56 7.39347Z" fill="#111111"/>
<path d="M219.39 13.6251H214.989V12.4676L216.106 11.9292V5.71108L214.989 5.17271V4.01522H219.39V5.17271L218.286 5.71108V11.9292L219.39 12.4676V13.6251Z" fill="#111111"/>
<path d="M223.477 3.89409C224.033 3.89409 224.531 3.97933 224.971 4.14981C225.42 4.32029 225.774 4.57602 226.034 4.91698C226.294 5.25795 226.424 5.68864 226.424 6.20907C226.424 6.59489 226.353 6.93586 226.209 7.23196C226.075 7.51909 225.886 7.77033 225.644 7.98568C225.411 8.20102 225.141 8.38945 224.836 8.55096C225.141 8.73042 225.433 8.94128 225.711 9.18354C225.998 9.41684 226.232 9.69499 226.411 10.018C226.599 10.3321 226.694 10.7044 226.694 11.1351C226.694 11.6645 226.568 12.1266 226.317 12.5214C226.066 12.9162 225.698 13.2213 225.213 13.4366C224.738 13.652 224.154 13.7597 223.463 13.7597C222.746 13.7597 222.144 13.6565 221.66 13.4501C221.184 13.2437 220.825 12.9476 220.583 12.5618C220.35 12.176 220.233 11.7184 220.233 11.189C220.233 10.7493 220.305 10.368 220.449 10.0449C220.601 9.72191 220.807 9.44376 221.068 9.21046C221.328 8.9682 221.615 8.76631 221.929 8.6048C221.669 8.42534 221.427 8.22346 221.202 7.99914C220.987 7.76584 220.816 7.50563 220.691 7.2185C220.565 6.9224 220.502 6.58144 220.502 6.19561C220.502 5.68416 220.633 5.25795 220.893 4.91698C221.162 4.57602 221.521 4.32029 221.969 4.14981C222.427 3.97933 222.93 3.89409 223.477 3.89409ZM222.239 11.0678C222.239 11.4178 222.342 11.7049 222.548 11.9292C222.755 12.1535 223.051 12.2657 223.437 12.2657C223.724 12.2657 223.957 12.2163 224.136 12.1176C224.325 12.0189 224.464 11.8799 224.554 11.7004C224.643 11.521 224.688 11.3146 224.688 11.0813C224.688 10.839 224.63 10.6237 224.513 10.4352C224.397 10.2468 224.253 10.0808 224.083 9.93726C223.912 9.78472 223.742 9.65462 223.571 9.54694L223.41 9.43927C223.185 9.56489 222.983 9.70845 222.804 9.86996C222.633 10.0315 222.494 10.2109 222.387 10.4083C222.288 10.5968 222.239 10.8166 222.239 11.0678ZM223.463 5.3746C223.212 5.3746 222.997 5.45984 222.817 5.63032C222.638 5.8008 222.548 6.04307 222.548 6.35712C222.548 6.57246 222.589 6.76538 222.669 6.93586C222.759 7.09737 222.871 7.24094 223.006 7.36655C223.149 7.4832 223.302 7.59536 223.463 7.70303C223.616 7.60433 223.76 7.49666 223.894 7.38001C224.038 7.26337 224.154 7.12429 224.244 6.96278C224.334 6.7923 224.379 6.59041 224.379 6.35712C224.379 6.04307 224.289 5.8008 224.109 5.63032C223.939 5.45984 223.724 5.3746 223.463 5.3746Z" fill="#111111"/>
<path d="M231.081 7.48769C231.61 7.48769 232.081 7.59985 232.494 7.82417C232.916 8.04849 233.248 8.37599 233.49 8.80669C233.741 9.23738 233.867 9.77126 233.867 10.4083C233.867 11.0992 233.732 11.6959 233.463 12.1984C233.194 12.7009 232.79 13.0867 232.252 13.3559C231.713 13.6251 231.04 13.7597 230.233 13.7597C229.739 13.7597 229.277 13.7148 228.846 13.6251C228.425 13.5353 228.052 13.4052 227.729 13.2348V11.4851C228.043 11.6555 228.42 11.8036 228.86 11.9292C229.308 12.0459 229.721 12.1042 230.098 12.1042C230.439 12.1042 230.726 12.0504 230.959 11.9427C231.193 11.835 231.368 11.669 231.484 11.4447C231.61 11.2204 231.673 10.9332 231.673 10.5833C231.673 10.1077 231.538 9.74883 231.269 9.50656C231 9.25533 230.587 9.12971 230.031 9.12971C229.798 9.12971 229.564 9.15663 229.331 9.21046C229.098 9.25533 228.896 9.30019 228.725 9.34505L227.891 8.91436L228.241 4.01522H233.261V5.73799H230.112L229.964 7.62228C230.107 7.59536 230.251 7.56844 230.394 7.54152C230.547 7.50563 230.776 7.48769 231.081 7.48769Z" fill="#111111"/>
<path d="M239.963 13.6251H237.769V8.06643C237.769 7.91389 237.769 7.72547 237.769 7.50115C237.778 7.27683 237.783 7.04353 237.783 6.80127C237.792 6.559 237.8 6.34366 237.809 6.15523C237.738 6.20906 237.643 6.30777 237.527 6.45133C237.419 6.59489 237.307 6.71603 237.19 6.81473L236.181 7.70303L235.077 6.47825L238.079 4.01522H239.963V13.6251Z" fill="#111111"/>
</svg>
