<svg width="350" height="76" viewBox="0 0 350 76" fill="none" xmlns="http://www.w3.org/2000/svg">
<path d="M338.565 68.5524C338.565 66.56 339.128 65.1739 340.255 64.3943C341.381 63.5714 342.745 63.1599 344.348 63.1599C345.864 63.1599 347.185 63.5714 348.311 64.3943C349.437 65.1739 350 66.56 350 68.5524C350 70.4581 349.437 71.8441 348.311 72.7104C347.185 73.5333 345.864 73.9448 344.348 73.9448C342.745 73.9448 341.381 73.5333 340.255 72.7104C339.128 71.8441 338.565 70.4581 338.565 68.5524Z" fill="#F9F9F9"/>
<path d="M333.284 60.2364C333.284 62.965 332.677 65.3472 331.465 67.3828C330.252 69.4185 328.411 70.9993 325.942 72.1255C323.517 73.2083 320.441 73.7497 316.717 73.7497C314.984 73.7497 313.381 73.6414 311.909 73.4248C310.436 73.2083 309.05 72.9051 307.751 72.5153C306.451 72.0821 305.152 71.5624 303.853 70.956V61.7956C306.062 62.7484 308.314 63.6363 310.609 64.4593C312.948 65.2389 315.157 65.6287 317.236 65.6287C318.579 65.6287 319.662 65.4121 320.485 64.979C321.308 64.5459 321.914 63.9612 322.304 63.2249C322.694 62.4886 322.889 61.644 322.889 60.6911C322.889 59.5217 322.564 58.5255 321.914 57.7026C321.308 56.8797 320.398 56.1217 319.185 55.4287C317.973 54.6924 316.478 53.9561 314.702 53.2198C313.403 52.6568 312.125 52.0071 310.869 51.2708C309.613 50.5345 308.487 49.6466 307.491 48.6071C306.495 47.5243 305.693 46.225 305.087 44.7091C304.524 43.1931 304.242 41.374 304.242 39.2518C304.242 36.4798 304.892 34.1193 306.191 32.1703C307.491 30.1779 309.31 28.662 311.649 27.6225C313.988 26.5831 316.717 26.0633 319.835 26.0633C322.39 26.0633 324.751 26.3448 326.917 26.9079C329.126 27.4709 331.226 28.2722 333.219 29.3117L329.905 36.9779C328 36.1117 326.18 35.4403 324.448 34.9639C322.759 34.4875 321.113 34.2492 319.51 34.2492C318.427 34.2492 317.518 34.4441 316.781 34.834C316.045 35.2238 315.482 35.7652 315.092 36.4582C314.746 37.1511 314.573 37.9741 314.573 38.9269C314.573 40.0097 314.854 40.9409 315.417 41.7205C316.024 42.4568 316.955 43.1931 318.211 43.9294C319.467 44.6224 321.069 45.467 323.019 46.4632C325.184 47.546 327.025 48.6937 328.541 49.9065C330.1 51.0759 331.27 52.4835 332.049 54.1294C332.872 55.7752 333.284 57.8109 333.284 60.2364Z" fill="#F9F9F9"/>
<path d="M295.966 73.1H282.387L264.911 38.0174H264.651C264.694 39.1002 264.737 40.2047 264.781 41.3308C264.824 42.4136 264.867 43.518 264.911 44.6441C264.997 45.7269 265.062 46.8314 265.106 47.9575C265.149 49.0403 265.192 50.1447 265.235 51.2708V73.1H255.88V26.713H269.394L286.805 61.4708H287C287 60.388 286.979 59.3268 286.935 58.2873C286.892 57.2046 286.827 56.1434 286.74 55.1039C286.697 54.0211 286.654 52.96 286.61 51.9205C286.567 50.8377 286.545 49.7549 286.545 48.6721V26.713H295.966V73.1Z" fill="#F9F9F9"/>
<path d="M239.375 73.1L236.711 62.0554H221.703L218.975 73.1H207.54L222.353 26.5181H235.867L250.745 73.1H239.375ZM231.384 43.0199C231.124 42.1103 230.864 41.1575 230.604 40.1613C230.344 39.1651 230.085 38.1257 229.825 37.0429C229.608 35.9601 229.392 34.8556 229.175 33.7295C229.002 34.8556 228.785 35.9817 228.525 37.1078C228.265 38.1906 228.006 39.2301 227.746 40.2263C227.529 41.2224 227.291 42.1536 227.031 43.0199L224.042 53.8045H234.437L231.384 43.0199Z" fill="#F9F9F9"/>
<path d="M172.95 73.1L163.269 36.718H163.009C163.053 37.5843 163.118 38.8836 163.204 40.6161C163.291 42.3486 163.378 44.211 163.464 46.2033C163.551 48.1524 163.594 49.9282 163.594 51.5307V73.1H154.239V26.713H168.402L178.082 62.1854H178.277L188.218 26.713H202.381V73.1H192.635V51.1409C192.635 49.6683 192.657 47.9791 192.7 46.0734C192.744 44.1677 192.809 42.3702 192.895 40.6811C192.982 38.9486 193.047 37.6493 193.09 36.783H192.83L182.825 73.1H172.95Z" fill="#F9F9F9"/>
<path d="M101.279 47.0479H119.275V71.086C117.023 71.9089 114.554 72.5586 111.869 73.035C109.183 73.5114 106.26 73.7497 103.098 73.7497C98.8533 73.7497 95.1717 72.8401 92.0532 71.021C88.9779 69.2019 86.5957 66.5166 84.9065 62.965C83.2606 59.4134 82.4377 55.0389 82.4377 49.8415C82.4377 44.9906 83.304 40.7893 85.0365 37.2378C86.8123 33.6862 89.3894 30.9359 92.7678 28.9869C96.1895 27.0378 100.369 26.0633 105.307 26.0633C107.819 26.0633 110.245 26.3232 112.583 26.8429C114.922 27.3627 117.001 28.0557 118.82 28.9219L115.442 36.783C113.969 36.0467 112.389 35.4403 110.699 34.9639C109.01 34.4875 107.213 34.2492 105.307 34.2492C102.665 34.2492 100.434 34.8989 98.615 36.1983C96.8392 37.4976 95.4965 39.3384 94.587 41.7205C93.7207 44.0594 93.2876 46.8313 93.2876 50.0364C93.2876 53.0682 93.6774 55.7536 94.457 58.0924C95.2366 60.4313 96.4061 62.272 97.9654 63.6147C99.5246 64.914 101.495 65.5637 103.878 65.5637C104.571 65.5637 105.242 65.5421 105.892 65.4987C106.541 65.4121 107.148 65.3255 107.711 65.2389C108.317 65.1089 108.837 65.0007 109.27 64.914V55.2338H101.279V47.0479Z" fill="#F9F9F9"/>
<path d="M75.8446 73.1H50.3766V26.713H75.8446V34.769H60.9017V44.969H74.8051V53.025H60.9017V64.979H75.8446V73.1Z" fill="#F9F9F9"/>
<path d="M40.086 73.1H26.5075L9.03073 38.0174H8.77085C8.81416 39.1002 8.85747 40.2047 8.90079 41.3308C8.9441 42.4136 8.98741 43.518 9.03073 44.6441C9.11735 45.7269 9.18232 46.8314 9.22563 47.9575C9.26895 49.0403 9.31226 50.1447 9.35557 51.2708V73.1H0V26.713H13.5136L30.9254 61.4708H31.1203C31.1203 60.388 31.0986 59.3268 31.0553 58.2873C31.012 57.2046 30.947 56.1434 30.8604 55.1039C30.8171 54.0211 30.7738 52.96 30.7305 51.9205C30.6871 50.8377 30.6655 49.7549 30.6655 48.6721V26.713H40.086V73.1Z" fill="#F9F9F9"/>
<path d="M151.818 0L160.455 8.63587L143.952 25.1385L143.954 25.1412L141.423 27.6722V75.0515H129.21V27.6741L126.677 25.1411L126.679 25.1385L110.209 8.6687L118.845 0.0328285L135.316 16.5026L151.818 0Z" fill="#F9F9F9"/>
<path d="M0.128884 8.5837H100.09V17.7214H0.128884V8.5837Z" fill="#F9F9F9"/>
<path d="M177.433 17.94H174.562V7.51973H171.496V5.28681H180.499V7.51973H177.433V17.94Z" fill="#F9F9F9"/>
<path d="M187.212 17.94H181.417V16.416L182.888 15.7071V7.51973L181.417 6.81087V5.28681H187.212V6.81087L185.759 7.51973V15.7071L187.212 16.416V17.94Z" fill="#F9F9F9"/>
<path d="M199.009 17.94H195.766L193.037 12.6058L192.026 13.421V17.94H189.156V5.28681H192.026V11.0818C192.18 10.8337 192.339 10.5856 192.505 10.3375C192.682 10.0894 192.853 9.84127 193.019 9.59316L195.872 5.28681H199.026L195.092 10.8868L199.009 17.94Z" fill="#F9F9F9"/>
<path d="M204.374 10.497L206.643 5.28681H209.726L205.792 13.0134V17.94H202.939V13.102L199.005 5.28681H202.124L204.374 10.497Z" fill="#F9F9F9"/>
<path d="M221.023 13.4742C221.023 14.3485 220.834 15.14 220.456 15.8489C220.09 16.5459 219.535 17.1012 218.79 17.5147C218.046 17.9164 217.113 18.1173 215.99 18.1173C214.383 18.1173 213.155 17.6919 212.304 16.8413C211.465 15.9789 211.046 14.8447 211.046 13.4388V5.28681H213.917V13.0312C213.917 14.0708 214.094 14.8033 214.448 15.2286C214.815 15.654 215.346 15.8666 216.043 15.8666C216.54 15.8666 216.941 15.7662 217.248 15.5653C217.556 15.3645 217.78 15.0514 217.922 14.6261C218.075 14.2008 218.152 13.6632 218.152 13.0134V5.28681H221.023V13.4742Z" fill="#F9F9F9"/>
<path d="M233.622 13.4742C233.622 14.3485 233.433 15.14 233.055 15.8489C232.689 16.5459 232.133 17.1012 231.389 17.5147C230.645 17.9164 229.712 18.1173 228.589 18.1173C226.982 18.1173 225.754 17.6919 224.903 16.8413C224.064 15.9789 223.645 14.8447 223.645 13.4388V5.28681H226.516V13.0312C226.516 14.0708 226.693 14.8033 227.047 15.2286C227.414 15.654 227.945 15.8666 228.642 15.8666C229.139 15.8666 229.54 15.7662 229.847 15.5653C230.155 15.3645 230.379 15.0514 230.521 14.6261C230.674 14.2008 230.751 13.6632 230.751 13.0134V5.28681H233.622V13.4742Z" fill="#F9F9F9"/>
<path d="M246.31 17.94H243.421V12.4818H239.203V17.94H236.332V5.28681H239.203V10.2489H243.421V5.28681H246.31V17.94Z" fill="#F9F9F9"/>
<path d="M256.388 17.94L255.661 14.9274H251.568L250.823 17.94H247.704L251.745 5.23365H255.431L259.489 17.94H256.388ZM254.208 9.73494C254.137 9.48683 254.066 9.22692 253.996 8.95518C253.925 8.68345 253.854 8.39991 253.783 8.10455C253.724 7.80919 253.665 7.50792 253.606 7.20075C253.558 7.50792 253.499 7.81509 253.428 8.12227C253.358 8.41763 253.287 8.70117 253.216 8.97291C253.157 9.24464 253.092 9.49865 253.021 9.73494L252.206 12.6767H255.041L254.208 9.73494Z" fill="#F9F9F9"/>
<path d="M270.743 17.94H267.5L264.771 12.6058L263.761 13.421V17.94H260.89V5.28681H263.761V11.0818C263.914 10.8337 264.074 10.5856 264.239 10.3375C264.417 10.0894 264.588 9.84127 264.753 9.59316L267.606 5.28681H270.761L266.827 10.8868L270.743 17.94Z" fill="#F9F9F9"/>
<path d="M279.423 17.94L278.696 14.9274H274.602L273.858 17.94H270.739L274.78 5.23365H278.466L282.524 17.94H279.423ZM277.243 9.73494C277.172 9.48683 277.101 9.22692 277.03 8.95518C276.959 8.68345 276.888 8.39991 276.818 8.10455C276.758 7.80919 276.699 7.50792 276.64 7.20075C276.593 7.50792 276.534 7.81509 276.463 8.12227C276.392 8.41763 276.321 8.70117 276.25 8.97291C276.191 9.24464 276.126 9.49865 276.056 9.73494L275.24 12.6767H278.076L277.243 9.73494Z" fill="#F9F9F9"/>
<path d="M288.869 17.94H283.074V16.416L284.545 15.7071V7.51973L283.074 6.81087V5.28681H288.869V6.81087L287.416 7.51973V15.7071L288.869 16.416V17.94Z" fill="#F9F9F9"/>
<path d="M294.251 5.12732C294.983 5.12732 295.639 5.23955 296.218 5.46403C296.808 5.6885 297.275 6.02521 297.618 6.47416C297.96 6.92311 298.132 7.4902 298.132 8.17543C298.132 8.68345 298.037 9.1324 297.848 9.52228C297.671 9.90034 297.423 10.2311 297.104 10.5147C296.797 10.7982 296.442 11.0463 296.04 11.259C296.442 11.4953 296.826 11.7729 297.192 12.0919C297.57 12.3991 297.878 12.7653 298.114 13.1906C298.362 13.6042 298.486 14.0945 298.486 14.6615C298.486 15.3586 298.321 15.967 297.99 16.4869C297.659 17.0067 297.175 17.4084 296.537 17.6919C295.91 17.9755 295.142 18.1173 294.233 18.1173C293.288 18.1173 292.496 17.9814 291.858 17.7097C291.232 17.4379 290.759 17.0481 290.44 16.54C290.133 16.032 289.98 15.4295 289.98 14.7324C289.98 14.1535 290.074 13.6514 290.263 13.2261C290.464 12.8008 290.736 12.4345 291.078 12.1274C291.421 11.8084 291.799 11.5425 292.213 11.3299C291.87 11.0936 291.551 10.8278 291.256 10.5324C290.972 10.2252 290.748 9.88262 290.582 9.50455C290.417 9.11468 290.334 8.66573 290.334 8.15771C290.334 7.48429 290.505 6.92311 290.848 6.47416C291.202 6.02521 291.675 5.6885 292.266 5.46403C292.868 5.23955 293.53 5.12732 294.251 5.12732ZM292.62 14.5729C292.62 15.0337 292.756 15.4118 293.028 15.7071C293.299 16.0025 293.689 16.1502 294.197 16.1502C294.575 16.1502 294.883 16.0852 295.119 15.9552C295.367 15.8253 295.55 15.6421 295.668 15.4059C295.786 15.1696 295.845 14.8978 295.845 14.5907C295.845 14.2717 295.769 13.9881 295.615 13.74C295.461 13.4919 295.272 13.2734 295.048 13.0843C294.824 12.8835 294.599 12.7122 294.375 12.5704L294.162 12.4286C293.867 12.594 293.601 12.7831 293.364 12.9957C293.14 13.2084 292.957 13.4447 292.815 13.7046C292.685 13.9527 292.62 14.2421 292.62 14.5729ZM294.233 7.07669C293.902 7.07669 293.618 7.18893 293.382 7.4134C293.146 7.63788 293.028 7.95687 293.028 8.37037C293.028 8.65392 293.081 8.90793 293.187 9.1324C293.305 9.34506 293.453 9.53409 293.63 9.69949C293.819 9.85308 294.02 10.0008 294.233 10.1425C294.434 10.0126 294.623 9.8708 294.8 9.71721C294.989 9.56363 295.142 9.3805 295.261 9.16784C295.379 8.94337 295.438 8.67755 295.438 8.37037C295.438 7.95687 295.32 7.63788 295.083 7.4134C294.859 7.18893 294.575 7.07669 294.233 7.07669Z" fill="#F9F9F9"/>
<path d="M304.262 9.85899C304.959 9.85899 305.58 10.0067 306.123 10.302C306.678 10.5974 307.115 11.0286 307.434 11.5957C307.765 12.1628 307.931 12.8658 307.931 13.7046C307.931 14.6143 307.753 15.3999 307.399 16.0616C307.045 16.7232 306.513 17.2312 305.804 17.5856C305.095 17.94 304.209 18.1173 303.146 18.1173C302.496 18.1173 301.888 18.0582 301.32 17.94C300.765 17.8219 300.275 17.6506 299.85 17.4261V15.1223C300.263 15.3468 300.759 15.5417 301.338 15.7071C301.929 15.8607 302.472 15.9375 302.969 15.9375C303.418 15.9375 303.796 15.8666 304.103 15.7248C304.41 15.5831 304.64 15.3645 304.794 15.0691C304.959 14.7738 305.042 14.3957 305.042 13.935C305.042 13.3088 304.865 12.8362 304.51 12.5172C304.156 12.1864 303.612 12.021 302.88 12.021C302.573 12.021 302.266 12.0565 301.958 12.1274C301.651 12.1864 301.385 12.2455 301.161 12.3046L300.062 11.7375L300.523 5.28681H307.133V7.55518H302.986L302.791 10.0362C302.98 10.0008 303.169 9.96532 303.358 9.92987C303.559 9.88262 303.861 9.85899 304.262 9.85899Z" fill="#F9F9F9"/>
<path d="M315.958 17.94H313.069V10.621C313.069 10.4202 313.069 10.1721 313.069 9.87671C313.081 9.58135 313.087 9.27417 313.087 8.95518C313.098 8.6362 313.11 8.35265 313.122 8.10455C313.028 8.17543 312.904 8.30539 312.75 8.49442C312.608 8.68345 312.46 8.84295 312.307 8.97291L310.978 10.1425L309.525 8.52987L313.477 5.28681H315.958V17.94Z" fill="#F9F9F9"/>
</svg>
